<svg xmlns="http://www.w3.org/2000/svg" viewBox="0 0 1024 1024" width="1024" height="1024"
     role="img" aria-label="Phoebus">
  <title>Phoebus</title>

  <!--
    The macOS icon: an Apple Big Sur plate (824 x 824 centred in a 1024 canvas, i.e. the
    body fills 80.5 % of the canvas and the rest is transparent margin) carrying the mark
    from assets/icon/reference.jpg.

    The plate outline is a superellipse |x/412|^5 + |y/412|^5 = 1 rather than a rounded
    rect: Apple's corner is continuous-curvature, and an `rx` rectangle reads visibly
    "rounder" next to stock icons in the Dock. Four cubics per quadrant track the
    superellipse to within 0.14 px at 1024 (scripts/make-icons.sh documents the fit).

    Mark geometry is the reference bitmap's, expressed against the 824 plate:
      ring   outer diameter 86.2 %, stroke 13.5 %  ->  r 299.52, stroke-width 111.24
      play   equilateral, corner radius 10 % of the ring's inner radius, inscribed in the
             inner circle: the three corner arcs sit on the r_inner - r_corner circle about
             the ring centre, so each arc is exactly tangent to the ring. All three corners
             kiss the ring and the gaps read even — the reference measures the same
             (corner reach 309.2 vs inner radius 308.5 on its 1043 px canvas).
  -->

  <defs>
    <path id="plate" d="M 924 512 C 924 555.06 924.46 649.42 922.48 697.19 C 918.48 793.7 901.71 839.62 870.67 870.67 C 839.62 901.71 793.7 918.48 697.19 922.48 C 649.42 924.46 555.06 924 512 924 C 468.94 924 374.58 924.46 326.81 922.48 C 230.3 918.48 184.38 901.71 153.33 870.67 C 122.29 839.62 105.52 793.7 101.52 697.19 C 99.54 649.42 100 555.06 100 512 C 100 468.94 99.54 374.58 101.52 326.81 C 105.52 230.3 122.29 184.38 153.33 153.33 C 184.38 122.29 230.3 105.52 326.81 101.52 C 374.58 99.54 468.94 100 512 100 C 555.06 100 649.42 99.54 697.19 101.52 C 793.7 105.52 839.62 122.29 870.67 153.33 C 901.71 184.38 918.48 230.3 922.48 326.81 C 924.46 374.58 924 468.94 924 512 Z"/>

    <!-- A few per cent lighter at the top: enough to stop the plate reading as a flat
         sticker in the Dock, not enough to turn a flat brand into a gradient. -->
    <linearGradient id="plate-fill" x1="512" y1="100" x2="512" y2="924" gradientUnits="userSpaceOnUse">
      <stop offset="0" stop-color="#303B49"/>
      <stop offset="1" stop-color="#2A3440"/>
    </linearGradient>

    <!-- Hairline rim light along the top edge, clipped to the plate so only its inner
         half survives. -->
    <linearGradient id="plate-rim" x1="512" y1="100" x2="512" y2="600" gradientUnits="userSpaceOnUse">
      <stop offset="0" stop-color="#FFFFFF" stop-opacity="0.13"/>
      <stop offset="1" stop-color="#FFFFFF" stop-opacity="0"/>
    </linearGradient>

    <clipPath id="plate-clip">
      <use href="#plate"/>
    </clipPath>
  </defs>

  <use href="#plate" fill="url(#plate-fill)"/>

  <!-- The mark sits at 0.85 of its measured size: the reference bitmap runs the ring to
       86.2 % of the plate, which crowds the Dock tile, so the whole group is scaled down
       about the plate centre (ring outer diameter now ~73 % of the plate). -->
  <g fill="#FEFB54" transform="translate(512 512) scale(0.85) translate(-512 -512)">
    <circle cx="512" cy="512" r="299.52" fill="none" stroke="#FEFB54" stroke-width="111.24"/>
    <path d="M 743.71 533.12 L 414.44 723.22 A 24.39 24.39 0 0 1 377.86 702.10 L 377.85 321.90 A 24.39 24.39 0 0 1 414.44 300.78 L 743.70 490.88 A 24.39 24.39 0 0 1 743.71 533.12 Z"/>
  </g>

  <use href="#plate" fill="none" stroke="url(#plate-rim)" stroke-width="4" clip-path="url(#plate-clip)"/>
</svg>
